<svg width="188" height="190" viewBox="0 0 188 190" fill="none" xmlns="http://www.w3.org/2000/svg">
<g clip-path="url(#clip0_29_83)">
<path d="M29.2465 0H158.373C159.354 0.528967 162.298 0.737349 163.554 1.08497C173.162 3.72969 180.766 10.5479 184.497 19.7497C187.176 26.3525 186.941 30.8957 186.942 37.819L186.941 51.1501L187.051 90.3924L187.075 135.445C187.082 141.414 187.104 147.383 187.108 153.352C187.111 158.735 187.236 163.664 185.119 168.724C181.892 176.641 175.627 182.934 167.725 186.197C158.94 189.779 145.912 188.878 136.276 188.898L97.3106 188.929L53.1932 188.946C47.4487 188.962 41.7149 189.098 35.968 189.096C30.3301 189.092 25.9453 189.186 20.6464 186.933C12.4428 183.528 5.95213 176.968 2.63409 168.729C0.298693 162.861 0.736546 156.964 0.736698 150.771L0.742626 135.61L0.74498 90.8679L0.77289 51.9904C0.780852 44.6898 0.615934 37.1052 1.03955 29.8656C1.94563 17.0261 10.0985 5.39679 22.5479 1.42835C24.4495 0.822146 27.949 0.562775 29.2465 0Z" fill="#808B9C"/>
<path d="M71.422 67.5626C71.5985 67.5747 71.7747 67.588 71.9506 67.6023C75.3263 67.8795 76.7588 69.9262 75.8359 71.6435C71.0169 80.6085 46.958 89.7384 29.0368 87.6835C26.1078 87.183 22.8839 85.6848 24.1717 83.9838C25.7828 81.8558 35.6561 81.6762 39.3841 81.168C42.6628 80.7176 45.8478 80.074 48.8785 79.2491C54.7155 77.6507 58.1029 75.7995 62.4851 73.2338C65.3078 71.5807 68.0475 68.3789 71.422 67.5626Z" fill="black"/>
<path d="M114.113 65.1197C113.936 65.1318 113.76 65.1451 113.584 65.1594C110.208 65.4367 108.776 67.4833 109.699 69.2006C114.518 78.1656 138.577 87.2955 156.498 85.2406C159.427 84.7401 162.651 83.2419 161.363 81.541C159.752 79.4129 149.879 79.2333 146.151 78.7251C142.872 78.2747 139.687 77.6311 136.656 76.8063C130.819 75.2078 127.432 73.3566 123.05 70.7909C120.227 69.1378 117.487 65.936 114.113 65.1197Z" fill="black"/>
<path d="M106.44 80.3109C112.027 82.0864 117.797 83.5453 123.457 85.0642C125.843 85.7042 129.129 86.225 131.403 87.0606C132.252 87.0692 138.25 88.6525 139.417 89.025C141.657 89.7397 149.768 90.8672 151.261 91.8909C151.619 92.4321 151.503 93.2379 151.48 93.9115C151.533 93.5407 151.607 92.7514 151.857 92.4903C152.553 91.7637 154.541 92.1593 155.642 92.2642C155.688 93.7346 155.489 95.4466 155.119 96.8757C149.609 118.187 119.937 122.827 108.508 103.807C104.203 96.6423 104.471 88.2541 106.44 80.3109Z" fill="#FEFEFE"/>
<path d="M131.403 87.0605C132.252 87.0692 138.25 88.6525 139.417 89.025C141.657 89.7397 149.768 90.8672 151.261 91.8909C151.618 92.4321 151.503 93.2379 151.48 93.9115C151.476 98.1013 150.019 102.484 146.785 105.107C138.816 111.569 126.805 103.56 128.23 93.8864C128.648 91.0482 129.059 88.9536 131.403 87.0605Z" fill="#1C1B1C"/>
<path d="M133.59 91.4098C136.142 91.2761 144.117 92.2253 146.131 93.8747C148.714 95.9907 146.126 99.8557 144.325 101.781C136.599 107.881 129.11 96.244 133.59 91.4098Z" fill="#060606"/>
<path d="M81.3576 80.9429C81.3128 90.9161 80.0034 101.298 72.4538 108.629C62.4213 118.371 46.1011 118.35 36.2739 108.29C32.2319 104.152 30.7634 100.947 28.6322 95.7828C32.7484 94.7539 37.2003 94.0908 41.3699 93.1289C42.9931 92.7544 51.8913 90.0745 52.8484 90.1815C54.5786 89.5145 58.9595 88.6911 61.0547 88.1159C63.5791 87.4226 67.0556 86.123 69.3742 85.6201C70.3107 84.6535 78.9883 82.2326 81.3576 80.9429Z" fill="#FEFEFE"/>
<path d="M52.8484 90.1814C54.5786 89.5144 58.9595 88.691 61.0547 88.1158C63.5791 87.4225 67.0556 86.1229 69.3742 85.62C72.0011 87.3144 73.5717 89.6152 74.2191 92.6718C74.9725 96.1831 74.2962 99.8498 72.3396 102.861C66.205 112.24 53.3109 107.593 51.4496 98.0489C50.9403 95.3435 51.4378 92.5453 52.8484 90.1814Z" fill="#1C1B1C"/>
<path d="M65.5554 89.6461C65.9487 89.5919 66.8228 89.5389 67.1437 89.6422C73.6627 91.742 71.0333 102.981 64.7803 103.924C63.3841 104.135 62.9838 104.112 61.6871 103.842C57.6144 103.143 54.0461 97.0818 56.6073 93.4136C58.3158 90.9667 62.7841 90.1376 65.5554 89.6461Z" fill="#060606"/>
<path d="M93.2181 137.051L106.607 136.944C108.837 136.916 114.816 136.401 116.546 137.825C118.471 139.41 116.69 143.139 114.146 143.513C111.541 143.895 108.963 143.75 106.282 143.742L95.0098 143.754C90.5284 143.753 86.0473 143.803 81.567 143.903C79.1913 143.969 76.2527 144.254 73.9336 144.061C69.6053 143.7 70.0766 138.275 73.8941 137.481C76.5823 136.922 79.5796 137.096 82.3185 137.093L93.2181 137.051Z" fill="#060606"/>
</g>
<defs>
<clipPath id="clip0_29_83">
<rect width="188" height="189.469" fill="white"/>
</clipPath>
</defs>
</svg>
